<svg xmlns="http://www.w3.org/2000/svg" xmlns:xlink="http://www.w3.org/1999/xlink" width="500" zoomAndPan="magnify" viewBox="0 0 375 374.999991" height="500" preserveAspectRatio="xMidYMid meet" version="1.0"><defs><clipPath id="ff5f1b90e8"><path d="M 83 73.648438 L 369 73.648438 L 369 294 L 83 294 Z M 83 73.648438 " clip-rule="nonzero"/></clipPath><clipPath id="2c4ec282d3"><path d="M 5.472656 138 L 154 138 L 154 301.648438 L 5.472656 301.648438 Z M 5.472656 138 " clip-rule="nonzero"/></clipPath></defs><g clip-path="url(#ff5f1b90e8)"><path fill="#023047" d="M 114.726562 132.617188 C 140.679688 106.433594 179.132812 97.925781 214.296875 114.894531 C 237.882812 126.277344 250.574219 144.855469 258.515625 166.566406 C 286.5 155.214844 318.152344 161.414062 335.082031 187.457031 C 366.425781 235.65625 331.578125 280.523438 282.652344 293.539062 C 307.105469 293.988281 330.273438 289.777344 348.953125 269.328125 C 366.726562 249.863281 371.910156 223.546875 367.15625 198.515625 C 358.691406 153.972656 321.410156 129.179688 276.804688 128.144531 C 247.34375 83.042969 199.851562 65.984375 156.308594 76.785156 C 126.261719 84.238281 102.558594 104.457031 83.992188 128.445312 C 85.050781 128.410156 86.109375 128.386719 87.175781 128.386719 C 96.539062 128.386719 105.820312 129.804688 114.726562 132.617188 Z M 114.726562 132.617188 " fill-opacity="1" fill-rule="evenodd"/></g><path fill="#023047" d="M 102.5625 183.996094 C 105.242188 181.960938 108.207031 180.0625 111.441406 178.320312 C 78.613281 174.082031 54.753906 180.90625 42.917969 202.5625 C 28.105469 229.671875 35.933594 258.898438 63.367188 274.539062 C 44.296875 255.152344 41.550781 224.714844 58.191406 206.835938 C 63.15625 201.496094 69.847656 197.277344 78.351562 194.804688 C 63.847656 204.917969 54.867188 219.566406 56.71875 236.878906 C 56.878906 238.347656 57.113281 239.832031 57.429688 241.335938 C 59.746094 252.375 64.574219 261.363281 71.433594 268.578125 C 101.191406 299.882812 139.640625 278.488281 173.054688 270.894531 C 178.679688 269.617188 184.277344 268.496094 189.839844 267.683594 C 223.183594 262.8125 261.292969 265.972656 282.652344 293.539062 C 264.878906 255.109375 225.84375 242.371094 183.828125 247.378906 C 177.351562 248.148438 170.839844 249.523438 164.304688 251.152344 C 146.640625 255.550781 128.976562 257.867188 111.351562 250.636719 C 95.4375 244.105469 82.226562 227.550781 85.4375 209.472656 C 87.101562 200.09375 93.046875 191.210938 102.5625 183.996094 Z M 102.5625 183.996094 " fill-opacity="1" fill-rule="evenodd"/><g clip-path="url(#2c4ec282d3)"><path fill="#fb8500" d="M 26.113281 224.660156 C 26.972656 191.980469 58.761719 165.078125 90.527344 163.042969 C 114.050781 161.535156 138.132812 175.703125 153.929688 192.324219 C 144.707031 172.78125 132.285156 161.109375 117.695312 154.753906 C 85.5625 140.757812 52.421875 152.558594 28.046875 176.179688 C 47.128906 146.320312 79.324219 140.789062 116.257812 144.054688 C 107.226562 140.585938 97.421875 138.6875 87.175781 138.6875 C 42.28125 138.6875 5.871094 175.175781 5.871094 220.167969 C 5.871094 265.160156 42.28125 301.648438 87.175781 301.648438 C 95.738281 301.648438 103.996094 300.320312 111.746094 297.859375 C 66.074219 300.464844 26.101562 274.035156 26.082031 226.917969 C 26.082031 226.171875 26.09375 225.417969 26.113281 224.660156 Z M 26.113281 224.660156 " fill-opacity="1" fill-rule="evenodd"/></g></svg>