<?xml version="1.0" encoding="UTF-8" standalone="no"?>
<svg
   width="278.88956"
   zoomAndPan="magnify"
   viewBox="0 0 209.16717 72.468748"
   height="96.625"
   preserveAspectRatio="xMidYMid"
   version="1.0"
   id="svg19"
   sodipodi:docname="Black and Beige Minimalist Aesthetic Modern Simple Typography Agency Logo.svg"
   xmlns:inkscape="http://www.inkscape.org/namespaces/inkscape"
   xmlns:sodipodi="http://sodipodi.sourceforge.net/DTD/sodipodi-0.dtd"
   xmlns="http://www.w3.org/2000/svg"
   xmlns:svg="http://www.w3.org/2000/svg">
  <sodipodi:namedview
     id="namedview19"
     pagecolor="#ffffff"
     bordercolor="#000000"
     borderopacity="0.25"
     inkscape:showpageshadow="2"
     inkscape:pageopacity="0.0"
     inkscape:pagecheckerboard="0"
     inkscape:deskcolor="#d1d1d1" />
  <defs
     id="defs1" />
  <g
     fill="#000000"
     fill-opacity="1"
     id="g4"
     transform="translate(-91.504615,-136.58948)">
    <g
       transform="translate(86.535867,207.80821)"
       id="g3">
      <g
         id="g2">
        <path
           d="m 48.6875,-37.171875 c 3.976562,4.355469 5.96875,9.679687 5.96875,15.96875 0,6.292969 -1.992188,11.609375 -5.96875,15.953125 -3.96875,4.335938 -9.015625,6.5 -15.140625,6.5 C 27.910156,1.25 23.269531,-0.765625 19.625,-4.796875 H 19.46875 V 0 h -14.5 V -71.21875 H 19.625 v 32.796875 c 3.644531,-3.53125 8.285156,-5.296875 13.921875,-5.296875 6.125,0 11.171875,2.183594 15.140625,6.546875 z M 36.359375,-14.03125 c 1.820313,-1.851562 2.734375,-4.242188 2.734375,-7.171875 0,-2.925781 -0.953125,-5.328125 -2.859375,-7.203125 -1.90625,-1.875 -4.265625,-2.8125 -7.078125,-2.8125 -2.761719,0 -5.09375,0.9375 -7,2.8125 -1.90625,1.875 -2.859375,4.277344 -2.859375,7.203125 0,2.875 0.921875,5.25 2.765625,7.125 1.851562,1.875 4.21875,2.8125 7.09375,2.8125 2.976562,0 5.378906,-0.921875 7.203125,-2.765625 z m 0,0"
           id="path1" />
      </g>
    </g>
  </g>
  <g
     fill="#000000"
     fill-opacity="1"
     id="g7"
     transform="translate(-91.504615,-136.58948)">
    <g
       transform="translate(136.63191,207.80821)"
       id="g6">
      <g
         id="g5">
        <path
           d="m 18.796875,-42.484375 v 20.203125 c 0,4.199219 0.632813,7.183594 1.90625,8.953125 1.269531,1.761719 3.421875,2.640625 6.453125,2.640625 3.039062,0 5.195312,-0.878906 6.46875,-2.640625 1.269531,-1.769531 1.90625,-4.753906 1.90625,-8.953125 V -42.484375 H 50.1875 v 23.765625 c 0,7.074219 -1.839844,12.171875 -5.515625,15.296875 C 41.003906,-0.304688 35.164062,1.25 27.15625,1.25 c -8,0 -13.839844,-1.554688 -17.515625,-4.671875 -3.667969,-3.125 -5.5,-8.222656 -5.5,-15.296875 v -23.765625 z m 0,0"
           id="path4" />
      </g>
    </g>
  </g>
  <g
     fill="#000000"
     fill-opacity="1"
     id="g10"
     transform="translate(-91.504615,-136.58948)">
    <g
       transform="translate(184.49222,207.80821)"
       id="g9">
      <g
         id="g8">
        <path
           d="M 4.96875,0 V -71.21875 H 19.625 V 0 Z m 0,0"
           id="path7" />
      </g>
    </g>
  </g>
  <g
     fill="#000000"
     fill-opacity="1"
     id="g13"
     transform="translate(-91.504615,-136.58948)">
    <g
       transform="translate(202.62568,207.80821)"
       id="g12">
      <g
         id="g11">
        <path
           d="m 18.796875,-42.484375 v 20.203125 c 0,4.199219 0.632813,7.183594 1.90625,8.953125 1.269531,1.761719 3.421875,2.640625 6.453125,2.640625 3.039062,0 5.195312,-0.878906 6.46875,-2.640625 1.269531,-1.769531 1.90625,-4.753906 1.90625,-8.953125 V -42.484375 H 50.1875 v 23.765625 c 0,7.074219 -1.839844,12.171875 -5.515625,15.296875 C 41.003906,-0.304688 35.164062,1.25 27.15625,1.25 c -8,0 -13.839844,-1.554688 -17.515625,-4.671875 -3.667969,-3.125 -5.5,-8.222656 -5.5,-15.296875 v -23.765625 z m 0,0"
           id="path10" />
      </g>
    </g>
  </g>
  <g
     fill="#000000"
     fill-opacity="1"
     id="g16"
     transform="translate(-91.504615,-136.58948)">
    <g
       transform="translate(250.48599,207.80821)"
       id="g15">
      <g
         id="g14">
        <path
           d="m 7.453125,-42.484375 v -15.8125 h 14.65625 v 15.8125 H 31.0625 v 11.1875 H 22.109375 V -17.8125 c 0,3.929688 1.101563,5.890625 3.3125,5.890625 0.550781,0 1.128906,-0.109375 1.734375,-0.328125 0.613281,-0.226562 1.085938,-0.453125 1.421875,-0.671875 L 29.0625,-13.25 32.71875,-1.40625 C 29.5625,0.363281 25.972656,1.25 21.953125,1.25 c -2.761719,0 -5.136719,-0.484375 -7.125,-1.453125 C 12.835938,-1.171875 11.332031,-2.46875 10.3125,-4.09375 9.289062,-5.726562 8.554688,-7.441406 8.109375,-9.234375 c -0.4375,-1.789063 -0.65625,-3.707031 -0.65625,-5.75 v -16.3125 h -6.125 v -11.1875 z m 0,0"
           id="path13" />
      </g>
    </g>
  </g>
  <g
     fill="#000000"
     fill-opacity="1"
     id="g19"
     transform="translate(-91.504615,-136.58948)">
    <g
       transform="translate(276.73429,207.80821)"
       id="g18">
      <g
         id="g17">
        <path
           d="m 14.40625,-17.71875 c 2.65625,0 4.90625,0.929688 6.75,2.78125 1.851562,1.84375 2.78125,4.089844 2.78125,6.734375 0,2.59375 -0.929688,4.820313 -2.78125,6.671875 C 19.3125,0.320312 17.0625,1.25 14.40625,1.25 11.8125,1.25 9.585938,0.320312 7.734375,-1.53125 5.890625,-3.382812 4.96875,-5.609375 4.96875,-8.203125 c 0,-2.644531 0.921875,-4.890625 2.765625,-6.734375 1.851563,-1.851562 4.078125,-2.78125 6.671875,-2.78125 z m 0,0"
           id="path16" />
      </g>
    </g>
  </g>
</svg>
