<?xml version="1.0" encoding="UTF-8" standalone="no"?>
<svg
   width="308.33035"
   zoomAndPan="magnify"
   viewBox="0 0 231.24776 99.046495"
   height="132.062"
   preserveAspectRatio="xMidYMid"
   version="1.0"
   id="svg27"
   xmlns="http://www.w3.org/2000/svg"
   xmlns:svg="http://www.w3.org/2000/svg">
  <defs
     id="defs3">
    <clipPath
       id="7fc2643b27">
      <path
         d="m 269,110 h 51 v 52 h -51 z m 0,0"
         clip-rule="nonzero"
         id="path1" />
    </clipPath>
    <clipPath
       id="969e18eb50">
      <path
         d="m 263.01953,115.58203 44.91406,-12.03515 13.97657,52.16015 -44.91407,12.03516 z m 0,0"
         clip-rule="nonzero"
         id="path2" />
    </clipPath>
    <clipPath
       id="f72306dbed">
      <path
         d="M 307.77734,103.58984 262.86328,115.625 276.83594,167.78516 321.75391,155.75 Z m 0,0"
         clip-rule="nonzero"
         id="path3" />
    </clipPath>
  </defs>
  <g
     fill="#ffffff"
     fill-opacity="1"
     id="g6"
     transform="translate(-88.642875,-110.01172)">
    <g
       transform="translate(83.67413,207.80821)"
       id="g5">
      <g
         id="g4">
        <path
           d="m 48.6875,-37.171875 c 3.976562,4.355469 5.96875,9.679687 5.96875,15.96875 0,6.292969 -1.992188,11.609375 -5.96875,15.953125 -3.96875,4.335938 -9.015625,6.5 -15.140625,6.5 C 27.910156,1.25 23.269531,-0.765625 19.625,-4.796875 H 19.46875 V 0 h -14.5 V -71.21875 H 19.625 v 32.796875 c 3.644531,-3.53125 8.285156,-5.296875 13.921875,-5.296875 6.125,0 11.171875,2.183594 15.140625,6.546875 z M 36.359375,-14.03125 c 1.820313,-1.851562 2.734375,-4.242188 2.734375,-7.171875 0,-2.925781 -0.953125,-5.328125 -2.859375,-7.203125 -1.90625,-1.875 -4.265625,-2.8125 -7.078125,-2.8125 -2.761719,0 -5.09375,0.9375 -7,2.8125 -1.90625,1.875 -2.859375,4.277344 -2.859375,7.203125 0,2.875 0.921875,5.25 2.765625,7.125 1.851562,1.875 4.21875,2.8125 7.09375,2.8125 2.976562,0 5.378906,-0.921875 7.203125,-2.765625 z m 0,0"
           id="path4" />
      </g>
    </g>
  </g>
  <g
     fill="#ffffff"
     fill-opacity="1"
     id="g9"
     transform="translate(-88.642875,-110.01172)">
    <g
       transform="translate(132.03107,207.80821)"
       id="g8">
      <g
         id="g7">
        <path
           d="m 18.796875,-42.484375 v 20.203125 c 0,4.199219 0.632813,7.183594 1.90625,8.953125 1.269531,1.761719 3.421875,2.640625 6.453125,2.640625 3.039062,0 5.195312,-0.878906 6.46875,-2.640625 1.269531,-1.769531 1.90625,-4.753906 1.90625,-8.953125 V -42.484375 H 50.1875 v 23.765625 c 0,7.074219 -1.839844,12.171875 -5.515625,15.296875 C 41.003906,-0.304688 35.164062,1.25 27.15625,1.25 c -8,0 -13.839844,-1.554688 -17.515625,-4.671875 -3.667969,-3.125 -5.5,-8.222656 -5.5,-15.296875 v -23.765625 z m 0,0"
           id="path6" />
      </g>
    </g>
  </g>
  <g
     fill="#ffffff"
     fill-opacity="1"
     id="g12"
     transform="translate(-88.642875,-110.01172)">
    <g
       transform="translate(178.15229,207.80821)"
       id="g11">
      <g
         id="g10">
        <path
           d="M 4.96875,0 V -71.21875 H 19.625 V 0 Z m 0,0"
           id="path9" />
      </g>
    </g>
  </g>
  <g
     fill="#ffffff"
     fill-opacity="1"
     id="g15"
     transform="translate(-88.642875,-110.01172)">
    <g
       transform="translate(194.54666,207.80821)"
       id="g14">
      <g
         id="g13">
        <path
           d="m 18.796875,-42.484375 v 20.203125 c 0,4.199219 0.632813,7.183594 1.90625,8.953125 1.269531,1.761719 3.421875,2.640625 6.453125,2.640625 3.039062,0 5.195312,-0.878906 6.46875,-2.640625 1.269531,-1.769531 1.90625,-4.753906 1.90625,-8.953125 V -42.484375 H 50.1875 v 23.765625 c 0,7.074219 -1.839844,12.171875 -5.515625,15.296875 C 41.003906,-0.304688 35.164062,1.25 27.15625,1.25 c -8,0 -13.839844,-1.554688 -17.515625,-4.671875 -3.667969,-3.125 -5.5,-8.222656 -5.5,-15.296875 v -23.765625 z m 0,0"
           id="path12" />
      </g>
    </g>
  </g>
  <g
     fill="#ffffff"
     fill-opacity="1"
     id="g18"
     transform="translate(-88.642875,-110.01172)">
    <g
       transform="translate(240.66788,207.80821)"
       id="g17">
      <g
         id="g16">
        <path
           d="m 7.453125,-42.484375 v -15.8125 h 14.65625 v 15.8125 H 31.0625 v 11.1875 H 22.109375 V -17.8125 c 0,3.929688 1.101563,5.890625 3.3125,5.890625 0.550781,0 1.128906,-0.109375 1.734375,-0.328125 0.613281,-0.226562 1.085938,-0.453125 1.421875,-0.671875 L 29.0625,-13.25 32.71875,-1.40625 C 29.5625,0.363281 25.972656,1.25 21.953125,1.25 c -2.761719,0 -5.136719,-0.484375 -7.125,-1.453125 C 12.835938,-1.171875 11.332031,-2.46875 10.3125,-4.09375 9.289062,-5.726562 8.554688,-7.441406 8.109375,-9.234375 c -0.4375,-1.789063 -0.65625,-3.707031 -0.65625,-5.75 v -16.3125 h -6.125 v -11.1875 z m 0,0"
           id="path15" />
      </g>
    </g>
  </g>
  <g
     fill="#ffffff"
     fill-opacity="1"
     id="g24"
     transform="translate(-88.642875,-110.01172)">
    <g
       transform="translate(279.58415,207.80821)"
       id="g23">
      <g
         id="g22">
        <path
           d="m 14.40625,-17.71875 c 2.65625,0 4.90625,0.929688 6.75,2.78125 1.851562,1.84375 2.78125,4.089844 2.78125,6.734375 0,2.59375 -0.929688,4.820313 -2.78125,6.671875 C 19.3125,0.320312 17.0625,1.25 14.40625,1.25 11.8125,1.25 9.585938,0.320312 7.734375,-1.53125 5.890625,-3.382812 4.96875,-5.609375 4.96875,-8.203125 c 0,-2.644531 0.921875,-4.890625 2.765625,-6.734375 1.851563,-1.851562 4.078125,-2.78125 6.671875,-2.78125 z m 0,0"
           id="path21" />
      </g>
    </g>
  </g>
  <g
     clip-path="url(#7fc2643b27)"
     id="g27"
     transform="translate(-88.642875,-110.01172)">
    <g
       clip-path="url(#969e18eb50)"
       id="g26">
      <g
         clip-path="url(#f72306dbed)"
         id="g25">
        <path
           fill="#ffffff"
           d="m 284.4375,110.01172 c -3.10156,6.16406 -3.82813,13.15625 -2.03906,19.83203 4.01953,15 19.59765,23.91016 34.72265,19.85547 0.9336,-0.25 1.85938,-0.54688 2.76953,-0.89453 -3.70703,5.93359 -9.4375,10.17187 -16.26171,12.0039 -14.65235,3.92578 -29.74219,-4.70312 -33.63282,-19.23047 -3.35547,-12.52343 2.82422,-25.85546 14.44141,-31.5664 z m 0,0"
           fill-opacity="1"
           fill-rule="nonzero"
           id="path24" />
      </g>
    </g>
  </g>
</svg>
