<svg id="visual" viewBox="0 0 900 600" width="900" height="600" xmlns="http://www.w3.org/2000/svg" xmlns:xlink="http://www.w3.org/1999/xlink" version="1.1"><g stroke-width="1" stroke-linejoin="bevel"><path d="M463 303L541.5 414L554.5 307Z" fill="#f7f7f8" stroke="#f7f7f8"></path><path d="M463 303L452 404L541.5 414Z" fill="#eeeef1" stroke="#eeeef1"></path><path d="M452 404L545.5 493L541.5 414Z" fill="#ececee" stroke="#ececee"></path><path d="M541.5 414L693 322L554.5 307Z" fill="#f7f7f8" stroke="#f7f7f8"></path><path d="M554.5 307L449 203L463 303Z" fill="#f4f4f5" stroke="#f4f4f5"></path><path d="M463 303L321.5 377L452 404Z" fill="#ececee" stroke="#ececee"></path><path d="M319.5 482L448 523L452 404Z" fill="#ffffff" stroke="#ffffff"></path><path d="M452 404L448 523L545.5 493Z" fill="#f1f1f3" stroke="#f1f1f3"></path><path d="M693 322L572.5 190L554.5 307Z" fill="#ececee" stroke="#ececee"></path><path d="M554.5 307L572.5 190L449 203Z" fill="#f1f1f3" stroke="#f1f1f3"></path><path d="M449 203L343.5 272L463 303Z" fill="#f1f1f3" stroke="#f1f1f3"></path><path d="M343.5 272L321.5 377L463 303Z" fill="#f9f9fa" stroke="#f9f9fa"></path><path d="M697 416L693 322L541.5 414Z" fill="#e9e9ec" stroke="#e9e9ec"></path><path d="M561.5 600L652 485L545.5 493Z" fill="#fcfcfd" stroke="#fcfcfd"></path><path d="M545.5 493L652 485L541.5 414Z" fill="#f4f4f5" stroke="#f4f4f5"></path><path d="M652 485L697 416L541.5 414Z" fill="#f7f7f8" stroke="#f7f7f8"></path><path d="M449 203L340.5 223L343.5 272Z" fill="#f4f4f5" stroke="#f4f4f5"></path><path d="M343.5 272L239 285L321.5 377Z" fill="#f9f9fa" stroke="#f9f9fa"></path><path d="M321.5 377L319.5 482L452 404Z" fill="#eeeef1" stroke="#eeeef1"></path><path d="M572.5 190L454 121L449 203Z" fill="#e7e7e9" stroke="#e7e7e9"></path><path d="M449 203L454 121L340.5 223Z" fill="#e7e7e9" stroke="#e7e7e9"></path><path d="M693 322L676 176L572.5 190Z" fill="#ececee" stroke="#ececee"></path><path d="M572.5 190L536.5 85L454 121Z" fill="#ececee" stroke="#ececee"></path><path d="M448 600L561.5 600L448 523Z" fill="#f4f4f5" stroke="#f4f4f5"></path><path d="M448 523L561.5 600L545.5 493Z" fill="#fcfcfd" stroke="#fcfcfd"></path><path d="M359.5 600L448 600L448 523Z" fill="#e7e7e9" stroke="#e7e7e9"></path><path d="M676 176L536.5 85L572.5 190Z" fill="#e9e9ec" stroke="#e9e9ec"></path><path d="M219 206L239 285L340.5 223Z" fill="#eeeef1" stroke="#eeeef1"></path><path d="M340.5 223L239 285L343.5 272Z" fill="#f9f9fa" stroke="#f9f9fa"></path><path d="M321.5 377L218 414L319.5 482Z" fill="#e4e4e7" stroke="#e4e4e7"></path><path d="M697 416L785.5 325L693 322Z" fill="#ffffff" stroke="#ffffff"></path><path d="M693 322L805.5 176L676 176Z" fill="#e9e9ec" stroke="#e9e9ec"></path><path d="M809.5 385L785.5 325L697 416Z" fill="#f9f9fa" stroke="#f9f9fa"></path><path d="M809.5 385L697 416L777.5 524Z" fill="#f7f7f8" stroke="#f7f7f8"></path><path d="M319.5 482L359.5 600L448 523Z" fill="#e9e9ec" stroke="#e9e9ec"></path><path d="M221 600L359.5 600L319.5 482Z" fill="#e7e7e9" stroke="#e7e7e9"></path><path d="M239 285L218 414L321.5 377Z" fill="#f9f9fa" stroke="#f9f9fa"></path><path d="M777.5 524L697 416L652 485Z" fill="#f9f9fa" stroke="#f9f9fa"></path><path d="M561.5 600L698 600L652 485Z" fill="#ffffff" stroke="#ffffff"></path><path d="M438 0L356.5 79L454 121Z" fill="#fcfcfd" stroke="#fcfcfd"></path><path d="M454 121L356.5 79L340.5 223Z" fill="#f1f1f3" stroke="#f1f1f3"></path><path d="M698 600L777.5 524L652 485Z" fill="#f9f9fa" stroke="#f9f9fa"></path><path d="M243 127L219 206L340.5 223Z" fill="#ffffff" stroke="#ffffff"></path><path d="M87.5 418L135.5 474L218 414Z" fill="#ffffff" stroke="#ffffff"></path><path d="M135.5 474L203 480L218 414Z" fill="#ececee" stroke="#ececee"></path><path d="M218 414L203 480L319.5 482Z" fill="#ffffff" stroke="#ffffff"></path><path d="M676 176L700 80L536.5 85Z" fill="#f9f9fa" stroke="#f9f9fa"></path><path d="M536.5 85L438 0L454 121Z" fill="#e9e9ec" stroke="#e9e9ec"></path><path d="M770.5 117L700 80L676 176Z" fill="#f9f9fa" stroke="#f9f9fa"></path><path d="M805.5 176L693 322L785.5 325Z" fill="#f1f1f3" stroke="#f1f1f3"></path><path d="M900 219L805.5 176L785.5 325Z" fill="#e7e7e9" stroke="#e7e7e9"></path><path d="M356.5 79L243 127L340.5 223Z" fill="#f4f4f5" stroke="#f4f4f5"></path><path d="M805.5 176L770.5 117L676 176Z" fill="#f9f9fa" stroke="#f9f9fa"></path><path d="M900 413L900 312L809.5 385Z" fill="#f7f7f8" stroke="#f7f7f8"></path><path d="M698 600L765.5 600L777.5 524Z" fill="#eeeef1" stroke="#eeeef1"></path><path d="M575.5 0L438 0L536.5 85Z" fill="#e4e4e7" stroke="#e4e4e7"></path><path d="M356.5 79L228 0L243 127Z" fill="#f9f9fa" stroke="#f9f9fa"></path><path d="M676 0L575.5 0L700 80Z" fill="#ffffff" stroke="#ffffff"></path><path d="M700 80L575.5 0L536.5 85Z" fill="#e7e7e9" stroke="#e7e7e9"></path><path d="M203 480L221 600L319.5 482Z" fill="#eeeef1" stroke="#eeeef1"></path><path d="M101.5 297L218 414L239 285Z" fill="#ffffff" stroke="#ffffff"></path><path d="M203 480L135.5 474L221 600Z" fill="#ffffff" stroke="#ffffff"></path><path d="M101.5 297L239 285L219 206Z" fill="#e4e4e7" stroke="#e4e4e7"></path><path d="M438 0L342.5 0L356.5 79Z" fill="#f4f4f5" stroke="#f4f4f5"></path><path d="M764.5 0L676 0L700 80Z" fill="#f7f7f8" stroke="#f7f7f8"></path><path d="M805.5 176L900 73L770.5 117Z" fill="#ffffff" stroke="#ffffff"></path><path d="M809.5 385L900 312L785.5 325Z" fill="#fcfcfd" stroke="#fcfcfd"></path><path d="M900 413L809.5 385L777.5 524Z" fill="#f9f9fa" stroke="#f9f9fa"></path><path d="M900 523L900 413L777.5 524Z" fill="#ffffff" stroke="#ffffff"></path><path d="M121.5 174L219 206L243 127Z" fill="#e4e4e7" stroke="#e4e4e7"></path><path d="M121.5 174L101.5 297L219 206Z" fill="#fcfcfd" stroke="#fcfcfd"></path><path d="M900 312L900 219L785.5 325Z" fill="#f4f4f5" stroke="#f4f4f5"></path><path d="M770.5 117L764.5 0L700 80Z" fill="#fcfcfd" stroke="#fcfcfd"></path><path d="M101.5 297L87.5 418L218 414Z" fill="#ffffff" stroke="#ffffff"></path><path d="M135.5 474L92.5 600L221 600Z" fill="#f1f1f3" stroke="#f1f1f3"></path><path d="M105.5 79L121.5 174L243 127Z" fill="#eeeef1" stroke="#eeeef1"></path><path d="M900 600L900 523L777.5 524Z" fill="#e4e4e7" stroke="#e4e4e7"></path><path d="M900 73L764.5 0L770.5 117Z" fill="#eeeef1" stroke="#eeeef1"></path><path d="M342.5 0L228 0L356.5 79Z" fill="#e7e7e9" stroke="#e7e7e9"></path><path d="M765.5 600L900 600L777.5 524Z" fill="#e4e4e7" stroke="#e4e4e7"></path><path d="M0 520L92.5 600L135.5 474Z" fill="#e9e9ec" stroke="#e9e9ec"></path><path d="M900 219L900 73L805.5 176Z" fill="#fcfcfd" stroke="#fcfcfd"></path><path d="M228 0L105.5 79L243 127Z" fill="#f7f7f8" stroke="#f7f7f8"></path><path d="M0 215L0 323L101.5 297Z" fill="#fcfcfd" stroke="#fcfcfd"></path><path d="M101.5 297L0 323L87.5 418Z" fill="#f4f4f5" stroke="#f4f4f5"></path><path d="M0 215L101.5 297L121.5 174Z" fill="#ffffff" stroke="#ffffff"></path><path d="M87.5 418L0 520L135.5 474Z" fill="#ececee" stroke="#ececee"></path><path d="M0 323L0 418L87.5 418Z" fill="#e9e9ec" stroke="#e9e9ec"></path><path d="M0 85L0 215L121.5 174Z" fill="#fcfcfd" stroke="#fcfcfd"></path><path d="M228 0L134.5 0L105.5 79Z" fill="#e9e9ec" stroke="#e9e9ec"></path><path d="M0 85L121.5 174L105.5 79Z" fill="#ececee" stroke="#ececee"></path><path d="M900 73L900 0L764.5 0Z" fill="#f9f9fa" stroke="#f9f9fa"></path><path d="M0 418L0 520L87.5 418Z" fill="#e7e7e9" stroke="#e7e7e9"></path><path d="M0 520L0 600L92.5 600Z" fill="#f1f1f3" stroke="#f1f1f3"></path><path d="M0 0L0 85L105.5 79Z" fill="#f7f7f8" stroke="#f7f7f8"></path><path d="M134.5 0L0 0L105.5 79Z" fill="#f7f7f8" stroke="#f7f7f8"></path></g></svg>